<svg id="Capa_1" enable-background="new 0 0 512 512" height="512" viewBox="0 0 512 512" width="512" xmlns="http://www.w3.org/2000/svg"><g><path d="m464.91 124.358c-25.267-41.232-59.448-66.056-97.44-71.227v-53.131h-30v53.133c-30.412 4.168-58.522 21.018-81.465 48.773-22.944-27.801-50.979-44.624-81.474-48.774v-53.132h-30v53.132c-37.992 5.171-72.174 29.995-97.44 71.227-23.955 39.092-38.257 91.097-38.257 139.113 0 43.498 19.233 103.795 50.194 157.362 15.843 27.411 57.351 91.166 100.503 91.166 39.88 0 78.354-54.451 96.464-84.346 11.769 19.504 24.352 36.598 37.054 50.22 21.116 22.645 41.108 34.126 59.421 34.126 43.151 0 84.66-63.755 100.503-91.166 30.96-53.567 50.193-113.864 50.193-157.362 0-48.016-14.302-100.021-38.256-139.114zm-155.729 116.209h28.288v54.672h-30.105c1.875-11.263 2.864-21.947 2.864-31.768 0-7.557-.356-15.214-1.047-22.904zm28.288 84.672v63.052c-4.531-7.055-9.399-15.329-14.443-24.972-6.501-12.431-12.323-25.417-17.115-38.079h31.558zm30 0h31.544c-4.738 12.548-10.513 25.487-17.099 38.078-5.045 9.644-9.914 17.919-14.445 24.974zm45.697-61.767c0 8.897-1.643 19.778-4.645 31.768h-41.052v-54.672h44.13c1.024 7.716 1.567 15.412 1.567 22.904zm-45.697-52.905v-63.047c8.925 6.275 16.295 16.671 20.702 23.863 6.99 11.407 12.774 24.898 17.015 39.185h-37.717zm-30 0h-32.651c-.621-3.102-1.292-6.193-2.014-9.273 3.887-11 8.653-21.246 13.964-29.912 4.407-7.192 11.776-17.587 20.701-23.862zm-194.417 188.961c-8.611-48.094-13.753-98.956-13.753-136.057 0-41.316 3.707-85.174 10.172-120.328 7.322-39.819 15.954-55.722 20.06-60.127 4.106 4.407 12.738 20.311 20.06 60.128 6.465 35.154 10.172 79.012 10.172 120.327 0 37.101-5.142 87.963-13.753 136.057-6.184 34.534-12.053 56.343-16.479 69.287-4.426-12.944-10.296-34.753-16.479-69.287zm-58.05 6.293c-28.478-49.27-46.168-103.815-46.168-142.35 0-42.719 12.648-88.863 33.836-123.438 15.821-25.819 33.022-40.625 49.189-48.799-3.806 10.461-7.204 23.085-10.242 37.96-7.713 37.763-12.318 87.96-12.318 134.277 0 41.899 6.258 100.408 16.331 152.693 3.286 17.057 6.789 32.396 10.327 45.289-13.679-13.71-27.822-32.909-40.955-55.632zm108.102 55.633c3.538-12.893 7.041-28.232 10.327-45.289 10.073-52.285 16.331-110.794 16.331-152.693 0-46.316-4.605-96.514-12.318-134.277-3.038-14.875-6.436-27.499-10.242-37.96 16.168 8.174 33.368 22.98 49.189 48.799 21.187 34.575 33.836 80.721 33.836 123.438 0 38.534-17.69 93.08-46.168 142.35-13.132 22.723-27.275 41.921-40.955 55.632zm233.895-55.633c-13.386 23.159-27.82 42.672-41.743 56.43-12.702 12.551-24.652 19.749-32.786 19.749-16.508 0-49.482-29.802-79.564-85.174 5.845-11.764 11.101-23.673 15.701-35.506 2.495 5.358 5.104 10.681 7.836 15.904 20.09 38.404 38.598 58.281 45.623 65.044l10.402 10.016 10.403-10.015c7.025-6.763 25.534-26.638 45.625-65.045 21.709-41.501 34.67-84.024 34.67-113.752 0-36.861-11.271-78.153-29.415-107.763-17.48-28.527-38.672-43.605-61.282-43.605s-43.802 15.078-61.281 43.604c-.637 1.04-1.252 2.112-1.872 3.178-4.496-11-9.645-21.501-15.384-31.254 27.463-37.386 57.557-45.528 78.539-45.528 23.432 0 57.521 10.05 86.86 57.93 21.188 34.575 33.836 80.721 33.836 123.438-.001 38.535-17.691 93.08-46.168 142.349z"/></g></svg>