<svg width="35" height="21" viewBox="0 0 35 21" fill="none" xmlns="http://www.w3.org/2000/svg">
<g opacity="0.75" clip-path="url(#clip0)">
<path d="M35 10.5C35 16.2778 30.3333 21 24.5 21C18.7222 21 14 16.2778 14 10.5C14 4.72222 18.6667 0 24.4444 0C30.3333 0 35 4.72222 35 10.5Z" fill="#503223" fill-opacity="0.75"/>
<path d="M24.5 0C30.2778 0 35 4.72222 35 10.5C35 16.2778 30.3333 21 24.5 21C18.7222 21 14 16.2778 14 10.5" fill="#503223" fill-opacity="0.75"/>
<path d="M24.4999 0C30.2777 0 34.9999 4.72222 34.9999 10.5C34.9999 16.2778 30.3333 21 24.4999 21" fill="#503223" fill-opacity="0.75"/>
<path d="M10.3889 0C4.66667 0.0555556 0 4.72222 0 10.5C0 16.2778 4.66667 21 10.5 21C13.2222 21 15.6667 19.9444 17.5556 18.2778C17.9444 17.9444 18.2778 17.5556 18.6111 17.1667H16.4444C16.1667 16.8333 15.8889 16.4444 15.6667 16.1111H19.3889C19.6111 15.7778 19.8333 15.3889 20 15H15.0556C14.8889 14.6667 14.7222 14.2778 14.6111 13.8889H20.3889C20.7222 12.8333 20.9444 11.7222 20.9444 10.5556C20.9444 9.77778 20.8333 9.05556 20.7222 8.33333H14.2778C14.3333 7.94444 14.4444 7.61111 14.5556 7.22222H20.3333C20.2222 6.83333 20.0556 6.44444 19.8889 6.11111H15C15.1667 5.72222 15.3889 5.38889 15.6111 5H19.3333C19.1111 4.61111 18.8333 4.22222 18.5 3.88889H16.4444C16.7778 3.5 17.1111 3.16667 17.5 2.83333C15.6667 1.11111 13.1667 0.111111 10.4444 0.111111C10.4444 0 10.4444 0 10.3889 0Z" fill="#503223" fill-opacity="0.75"/>
<path d="M0 10.5002C0 16.278 4.66667 21.0002 10.5 21.0002C13.2222 21.0002 15.6667 19.9447 17.5556 18.278C17.9444 17.9447 18.2778 17.5558 18.6111 17.1669H16.4444C16.1667 16.8335 15.8889 16.4447 15.6667 16.1113H19.3889C19.6111 15.778 19.8333 15.3891 20 15.0002H15.0556C14.8889 14.6669 14.7222 14.278 14.6111 13.8891H20.3889C20.7222 12.8335 20.9444 11.7224 20.9444 10.5558C20.9444 9.77799 20.8333 9.05577 20.7222 8.33355H14.2778C14.3333 7.94466 14.4444 7.61133 14.5556 7.22244H20.3333C20.2222 6.83355 20.0556 6.44466 19.8889 6.11133H15C15.1667 5.72244 15.3889 5.38911 15.6111 5.00022H19.3333C19.1111 4.61133 18.8333 4.22244 18.5 3.88911H16.4444C16.7778 3.50022 17.1111 3.16688 17.5 2.83355C15.6667 1.11133 13.1667 0.111328 10.4444 0.111328H10.3889" fill="#503223" fill-opacity="0.75"/>
<path d="M10.5 21C13.2222 21 15.6667 19.9444 17.5556 18.2777C17.9445 17.9444 18.2778 17.5555 18.6111 17.1666H16.4445C16.1667 16.8333 15.8889 16.4444 15.6667 16.1111H19.3889C19.6111 15.7777 19.8333 15.3889 20 15H15.0556C14.8889 14.6666 14.7222 14.2777 14.6111 13.8889H20.3889C20.7222 12.8333 20.9445 11.7222 20.9445 10.5555C20.9445 9.77775 20.8333 9.05553 20.7222 8.33331H14.2778C14.3333 7.94442 14.4445 7.61108 14.5556 7.22219H20.3333C20.2222 6.83331 20.0556 6.44442 19.8889 6.11108H15C15.1667 5.72219 15.3889 5.38886 15.6111 4.99997H19.3333C19.1111 4.61108 18.8333 4.22219 18.5 3.88886H16.4445C16.7778 3.49997 17.1111 3.16664 17.5 2.83331C15.6667 1.11108 13.1667 0.111084 10.4445 0.111084H10.3889" fill="#503223" fill-opacity="0.75"/>
<path d="M14.2223 13.1667L14.389 12.2223C14.3334 12.2223 14.2223 12.2778 14.1112 12.2778C13.7223 12.2778 13.6667 12.0556 13.7223 11.9445L14.0556 10.0001H14.6667L14.8334 8.9445H14.2778L14.389 8.27783H13.2778C13.2778 8.27783 12.6112 11.9445 12.6112 12.3889C12.6112 13.0556 13.0001 13.3334 13.5001 13.3334C13.8334 13.3334 14.1112 13.2223 14.2223 13.1667Z" fill="white" fill-opacity="0.75"/>
<path d="M14.6111 11.3889C14.6111 12.9444 15.6667 13.3333 16.5556 13.3333C17.3889 13.3333 17.7223 13.1666 17.7223 13.1666L17.9445 12.1111C17.9445 12.1111 17.3334 12.3889 16.7778 12.3889C15.5556 12.3889 15.7778 11.5 15.7778 11.5H18.0556C18.0556 11.5 18.2223 10.7778 18.2223 10.5C18.2223 9.77776 17.8334 8.88887 16.6111 8.88887C15.4445 8.77776 14.6111 9.99998 14.6111 11.3889ZM16.5556 9.77776C17.1667 9.77776 17.0556 10.5 17.0556 10.5555H15.8334C15.8334 10.5 15.9445 9.77776 16.5556 9.77776Z" fill="white" fill-opacity="0.75"/>
<path d="M23.6111 13.1667L23.8333 11.9445C23.8333 11.9445 23.2778 12.2223 22.8889 12.2223C22.1111 12.2223 21.7778 11.6112 21.7778 10.9445C21.7778 9.61117 22.4444 8.88894 23.2222 8.88894C23.7778 8.88894 24.2222 9.22228 24.2222 9.22228L24.3889 8.05561C24.3889 8.05561 23.7222 7.77783 23.1111 7.77783C21.8333 7.77783 20.5556 8.88894 20.5556 11.0001C20.5556 12.3889 21.2222 13.3334 22.5556 13.3334C23 13.3334 23.6111 13.1667 23.6111 13.1667Z" fill="white" fill-opacity="0.75"/>
<path d="M8.11114 8.77783C7.33336 8.77783 6.77781 9.00005 6.77781 9.00005L6.61114 9.9445C6.61114 9.9445 7.11114 9.72228 7.83336 9.72228C8.22225 9.72228 8.55559 9.77783 8.55559 10.1112C8.55559 10.3334 8.50003 10.3889 8.50003 10.3889C8.50003 10.3889 8.1667 10.3889 8.00003 10.3889C7.05559 10.3889 6.00003 10.7778 6.00003 12.0556C6.00003 13.0556 6.6667 13.2778 7.05559 13.2778C7.83336 13.2778 8.1667 12.7778 8.22225 12.7778L8.1667 13.2223H9.1667L9.61114 10.1667C9.61114 8.83339 8.50003 8.77783 8.11114 8.77783ZM8.33336 11.2778C8.33336 11.4445 8.22225 12.3334 7.55559 12.3334C7.22225 12.3334 7.11114 12.0556 7.11114 11.8889C7.11114 11.6112 7.27781 11.2223 8.11114 11.2223C8.27781 11.2778 8.33336 11.2778 8.33336 11.2778Z" fill="white" fill-opacity="0.75"/>
<path d="M10.6667 13.2777C10.9445 13.2777 12.3334 13.3333 12.3334 11.8333C12.3334 10.4444 11.0001 10.7222 11.0001 10.1666C11.0001 9.88883 11.2223 9.77772 11.6112 9.77772C11.7779 9.77772 12.389 9.83328 12.389 9.83328L12.5556 8.83328C12.5556 8.83328 12.1667 8.72217 11.5001 8.72217C10.6667 8.72217 9.83341 9.0555 9.83341 10.1666C9.83341 11.4444 11.2223 11.3333 11.2223 11.8333C11.2223 12.1666 10.8334 12.2222 10.5556 12.2222C10.0556 12.2222 9.55563 12.0555 9.55563 12.0555L9.38896 13.0555C9.44452 13.1666 9.7223 13.2777 10.6667 13.2777Z" fill="white" fill-opacity="0.75"/>
<path d="M32.8334 7.88892L32.6111 9.38892C32.6111 9.38892 32.1667 8.83336 31.5556 8.83336C30.5556 8.83336 29.6667 10.0556 29.6667 11.5C29.6667 12.3889 30.1111 13.3334 31.0556 13.3334C31.7222 13.3334 32.1111 12.8889 32.1111 12.8889L32.0556 13.2778H33.1667L34 7.94447L32.8334 7.88892ZM32.3334 10.8334C32.3334 11.4445 32.0556 12.2222 31.4445 12.2222C31.0556 12.2222 30.8334 11.8889 30.8334 11.3334C30.8334 10.4445 31.2222 9.88892 31.7222 9.88892C32.1111 9.88892 32.3334 10.1667 32.3334 10.8334Z" fill="white" fill-opacity="0.75"/>
<path d="M2.05557 13.2225L2.72224 9.22249L2.83335 13.2225H3.61113L5.05557 9.22249L4.44446 13.2225H5.61113L6.50002 7.88916H4.66668L3.55557 11.1669L3.50002 7.88916H1.8889L1.00002 13.2225H2.05557Z" fill="white" fill-opacity="0.75"/>
<path d="M19.2778 13.2222C19.6112 11.3889 19.6667 9.88892 20.4445 10.1667C20.5556 9.44447 20.7223 9.16669 20.8334 8.88892C20.8334 8.88892 20.7778 8.88892 20.6112 8.88892C20.1112 8.88892 19.7223 9.55558 19.7223 9.55558L19.8334 8.94447H18.7778L18.0556 13.2778H19.2778V13.2222Z" fill="white" fill-opacity="0.75"/>
<path d="M26.1667 8.77783C25.3889 8.77783 24.8333 9.00005 24.8333 9.00005L24.6667 9.9445C24.6667 9.9445 25.1667 9.72228 25.8889 9.72228C26.2778 9.72228 26.6111 9.77783 26.6111 10.1112C26.6111 10.3334 26.5556 10.3889 26.5556 10.3889C26.5556 10.3889 26.2222 10.3889 26.0556 10.3889C25.1111 10.3889 24.0556 10.7778 24.0556 12.0556C24.0556 13.0556 24.7222 13.2778 25.1111 13.2778C25.8889 13.2778 26.2222 12.7778 26.2778 12.7778L26.2222 13.2223H27.2222L27.6667 10.1667C27.7222 8.83339 26.5556 8.77783 26.1667 8.77783ZM26.4444 11.2778C26.4444 11.4445 26.3333 12.3334 25.6667 12.3334C25.3333 12.3334 25.2222 12.0556 25.2222 11.8889C25.2222 11.6112 25.3889 11.2223 26.2222 11.2223C26.3889 11.2778 26.3889 11.2778 26.4444 11.2778Z" fill="white" fill-opacity="0.75"/>
<path d="M28.6112 13.2222C28.9445 11.3889 29 9.88892 29.7778 10.1667C29.8889 9.44447 30.0556 9.16669 30.1667 8.88892C30.1667 8.88892 30.1112 8.88892 29.9445 8.88892C29.4445 8.88892 29.0556 9.55558 29.0556 9.55558L29.1667 8.94447H28.1112L27.3889 13.2778H28.6112V13.2222Z" fill="white" fill-opacity="0.75"/>
<path d="M12.5001 12.3889C12.5001 13.0556 12.8889 13.3334 13.3889 13.3334C13.7778 13.3334 14.1112 13.2223 14.2223 13.1667L14.3889 12.2223C14.3334 12.2223 14.2223 12.2778 14.1112 12.2778C13.7223 12.2778 13.6667 12.0556 13.7223 11.9445L14.0556 10.0001H14.6667L14.8334 8.9445H14.2778L14.3889 8.27783" fill="white" fill-opacity="0.75"/>
<path d="M15.1667 11.3889C15.1667 12.9444 15.6667 13.3333 16.5555 13.3333C17.3889 13.3333 17.7222 13.1666 17.7222 13.1666L17.9444 12.1111C17.9444 12.1111 17.3333 12.3889 16.7778 12.3889C15.5555 12.3889 15.7778 11.5 15.7778 11.5H18.0555C18.0555 11.5 18.2222 10.7778 18.2222 10.5C18.2222 9.77776 17.8333 8.88887 16.6111 8.88887C15.4444 8.77776 15.1667 9.99998 15.1667 11.3889ZM16.5555 9.77776C17.1667 9.77776 17.2778 10.5 17.2778 10.5555H15.8333C15.8333 10.5 15.9444 9.77776 16.5555 9.77776Z" fill="white" fill-opacity="0.75"/>
<path d="M23.6111 13.1667L23.8333 11.9445C23.8333 11.9445 23.2777 12.2223 22.8888 12.2223C22.1111 12.2223 21.7777 11.6112 21.7777 10.9445C21.7777 9.61117 22.4444 8.88894 23.2222 8.88894C23.7777 8.88894 24.2222 9.22228 24.2222 9.22228L24.3888 8.05561C24.3888 8.05561 23.7222 7.77783 23.1111 7.77783C21.8333 7.77783 21.1111 8.88894 21.1111 11.0001C21.1111 12.3889 21.2222 13.3334 22.5555 13.3334C23 13.3334 23.6111 13.1667 23.6111 13.1667Z" fill="white" fill-opacity="0.75"/>
<path d="M6.61114 10C6.61114 10 7.11114 9.7778 7.83336 9.7778C8.22225 9.7778 8.55559 9.83336 8.55559 10.1667C8.55559 10.3889 8.50003 10.4445 8.50003 10.4445C8.50003 10.4445 8.1667 10.4445 8.00003 10.4445C7.05559 10.4445 6.00003 10.8334 6.00003 12.1111C6.00003 13.1111 6.6667 13.3334 7.05559 13.3334C7.83336 13.3334 8.1667 12.8334 8.22225 12.8334L8.1667 13.2778H9.1667L9.61114 10.2222C9.61114 8.94447 8.50003 8.88892 8.05559 8.88892L6.61114 10ZM8.88892 11.2778C8.88892 11.4445 8.22225 12.3334 7.55559 12.3334C7.22225 12.3334 7.11114 12.0556 7.11114 11.8889C7.11114 11.6111 7.27781 11.2222 8.11114 11.2222C8.27781 11.2778 8.88892 11.2778 8.88892 11.2778Z" fill="white" fill-opacity="0.75"/>
<path d="M9.44446 13.1666C9.44446 13.1666 9.77779 13.2777 10.7222 13.2777C11 13.2777 12.3889 13.3333 12.3889 11.8333C12.3889 10.4444 11.0556 10.7222 11.0556 10.1666C11.0556 9.88883 11.2778 9.77772 11.6667 9.77772C11.8333 9.77772 12.4445 9.83328 12.4445 9.83328L12.6111 8.83328C12.6111 8.83328 12.2222 8.72217 11.5556 8.72217C10.7222 8.72217 10.4445 9.0555 10.4445 10.1666C10.4445 11.4444 11.2778 11.3333 11.2778 11.8333C11.2778 12.1666 10.8889 12.2222 10.6111 12.2222" fill="white" fill-opacity="0.75"/>
<path d="M32.6112 9.38902C32.6112 9.38902 32.1667 8.83347 31.5556 8.83347C30.5556 8.83347 30.2223 10.0557 30.2223 11.5001C30.2223 12.389 30.1112 13.3335 31.0556 13.3335C31.7223 13.3335 32.1112 12.889 32.1112 12.889L32.0556 13.2779H33.1667L34 7.94458L32.6112 9.38902ZM32.5556 10.8335C32.5556 11.4446 32.0556 12.2224 31.4445 12.2224C31.0556 12.2224 30.8334 11.889 30.8334 11.3335C30.8334 10.4446 31.2223 9.88902 31.7223 9.88902C32.1112 9.88902 32.5556 10.1668 32.5556 10.8335Z" fill="white" fill-opacity="0.75"/>
<path d="M2.05557 13.2225L2.72224 9.22249L2.83335 13.2225H3.61113L5.05557 9.22249L4.44446 13.2225H5.61113L6.50002 7.88916H5.11113L3.55557 11.1669L3.50002 7.88916H2.8889L1.00002 13.2225H2.05557Z" fill="white" fill-opacity="0.75"/>
<path d="M18.1111 13.2222H19.2778C19.6111 11.3889 19.6667 9.88892 20.4444 10.1667C20.5556 9.44447 20.7222 9.16669 20.8333 8.88892C20.8333 8.88892 20.7778 8.88892 20.6111 8.88892C20.1111 8.88892 19.7222 9.55558 19.7222 9.55558L19.8333 8.94447" fill="white" fill-opacity="0.75"/>
<path d="M24.6667 10C24.6667 10 25.1667 9.7778 25.8889 9.7778C26.2778 9.7778 26.6111 9.83336 26.6111 10.1667C26.6111 10.3889 26.5556 10.4445 26.5556 10.4445C26.5556 10.4445 26.2222 10.4445 26.0556 10.4445C25.1111 10.4445 24.0556 10.8334 24.0556 12.1111C24.0556 13.1111 24.7222 13.3334 25.1111 13.3334C25.8889 13.3334 26.2222 12.8334 26.2778 12.8334L26.2222 13.2778H27.2222L27.6667 10.2222C27.6667 8.94447 26.5556 8.88892 26.1111 8.88892L24.6667 10ZM26.9444 11.2778C26.9444 11.4445 26.2778 12.3334 25.6111 12.3334C25.2778 12.3334 25.1667 12.0556 25.1667 11.8889C25.1667 11.6111 25.3333 11.2222 26.1667 11.2222C26.3889 11.2778 26.9444 11.2778 26.9444 11.2778Z" fill="white" fill-opacity="0.75"/>
<path d="M27.4445 13.2222H28.6111C28.9445 11.3889 29 9.88892 29.7778 10.1667C29.8889 9.44447 30.0556 9.16669 30.1667 8.88892C30.1667 8.88892 30.1111 8.88892 29.9445 8.88892C29.4445 8.88892 29.0556 9.55558 29.0556 9.55558L29.1667 8.94447" fill="white" fill-opacity="0.75"/>
</g>
<defs>
<clipPath id="clip0">
<rect width="35" height="21" fill="white"/>
</clipPath>
</defs>
</svg>
