<svg width="67" height="18" viewBox="0 0 67 18" fill="none" xmlns="http://www.w3.org/2000/svg">
<g clip-path="url(#clip0)">
<path d="M51.7737 5.16772H48.1591C47.9465 5.16772 47.7339 5.38035 47.6276 5.59297L46.1392 14.9484C46.1392 15.161 46.2455 15.2673 46.4582 15.2673H48.3718C48.5844 15.2673 48.6907 15.161 48.6907 14.9484L49.1159 12.2906C49.1159 12.078 49.3286 11.8654 49.6475 11.8654H50.8169C53.2621 11.8654 54.6442 10.6959 54.9631 8.35707C55.1757 7.40027 54.9631 6.54978 54.5378 6.01822C53.9 5.48666 52.9432 5.16772 51.7737 5.16772ZM52.199 8.67601C51.9864 9.95175 51.0296 9.95175 50.0728 9.95175H49.4349L49.8601 7.50658C49.8601 7.40027 49.9664 7.29396 50.1791 7.29396H50.3917C51.0296 7.29396 51.6674 7.29396 51.9864 7.7192C52.199 7.82551 52.199 8.14445 52.199 8.67601Z" fill="#503223" fill-opacity="0.75"/>
<path d="M25.7274 5.16772H22.1128C21.9002 5.16772 21.6876 5.38035 21.5813 5.59297L20.0929 14.9484C20.0929 15.161 20.1992 15.2673 20.4118 15.2673H22.1128C22.3254 15.2673 22.5381 15.0547 22.6444 14.8421L23.0696 12.2906C23.0696 12.078 23.2822 11.8654 23.6012 11.8654H24.7706C27.2158 11.8654 28.5978 10.6959 28.9168 8.35707C29.1294 7.40027 28.9168 6.54978 28.4915 6.01822C27.8536 5.48666 27.0031 5.16772 25.7274 5.16772ZM26.1527 8.67601C25.94 9.95175 24.9832 9.95175 24.0264 9.95175H23.4949L23.9201 7.50658C23.9201 7.40027 24.0264 7.29396 24.239 7.29396H24.4517C25.0895 7.29396 25.7274 7.29396 26.0463 7.7192C26.1527 7.82551 26.259 8.14445 26.1527 8.67601Z" fill="#503223" fill-opacity="0.75"/>
<path d="M36.6774 8.5698H34.9764C34.8701 8.5698 34.6575 8.67611 34.6575 8.78242L34.5512 9.31398L34.4449 9.10136C34.0196 8.5698 33.2755 8.35718 32.425 8.35718C30.5114 8.35718 28.8104 9.84554 28.4914 11.8655C28.2788 12.9286 28.5977 13.8854 29.1293 14.5232C29.6609 15.1611 30.405 15.3737 31.3618 15.3737C32.9565 15.3737 33.807 14.4169 33.807 14.4169L33.7007 14.9485C33.7007 15.1611 33.807 15.2674 34.0196 15.2674H35.6143C35.8269 15.2674 36.0396 15.0548 36.1459 14.8422L37.1027 8.88874C36.9964 8.78242 36.7837 8.5698 36.6774 8.5698ZM34.2323 11.9718C34.0196 12.9286 33.2755 13.6728 32.2123 13.6728C31.6808 13.6728 31.2555 13.4601 31.0429 13.2475C30.8303 12.9286 30.724 12.5033 30.724 11.9718C30.8303 11.015 31.6808 10.2708 32.6376 10.2708C33.1691 10.2708 33.4881 10.4834 33.807 10.696C34.126 11.015 34.2323 11.5465 34.2323 11.9718Z" fill="#503223" fill-opacity="0.75"/>
<path d="M62.6175 8.5698H60.9165C60.8102 8.5698 60.5976 8.67611 60.5976 8.78242L60.4913 9.31398L60.385 9.10136C59.9597 8.5698 59.2156 8.35718 58.3651 8.35718C56.4515 8.35718 54.7505 9.84554 54.4315 11.8655C54.2189 12.9286 54.5378 13.8854 55.0694 14.5232C55.601 15.1611 56.3451 15.3737 57.3019 15.3737C58.8966 15.3737 59.7471 14.4169 59.7471 14.4169L59.6408 14.9485C59.6408 15.1611 59.7471 15.2674 59.9597 15.2674H61.5544C61.767 15.2674 61.9797 15.0548 62.086 14.8422L63.0428 8.88874C62.9365 8.78242 62.8301 8.5698 62.6175 8.5698ZM60.1724 11.9718C59.9597 12.9286 59.2156 13.6728 58.1524 13.6728C57.6209 13.6728 57.1956 13.4601 56.983 13.2475C56.7704 12.9286 56.6641 12.5033 56.6641 11.9718C56.7704 11.015 57.6209 10.2708 58.5777 10.2708C59.1092 10.2708 59.4282 10.4834 59.7471 10.696C60.1724 11.015 60.2787 11.5465 60.1724 11.9718Z" fill="#503223" fill-opacity="0.75"/>
<path d="M45.9266 8.56958H44.1193C43.9067 8.56958 43.8004 8.67589 43.6941 8.7822L41.3552 12.3968L40.2921 8.99483C40.1858 8.7822 40.0795 8.67589 39.7606 8.67589H38.0596C37.8469 8.67589 37.7406 8.88851 37.7406 9.10114L39.6542 14.7356L37.8469 17.2871C37.7406 17.4998 37.8469 17.8187 38.0596 17.8187H39.7606C39.9732 17.8187 40.0795 17.7124 40.1858 17.6061L46.0329 9.20745C46.3519 8.88851 46.1392 8.56958 45.9266 8.56958Z" fill="#503223" fill-opacity="0.75"/>
<path d="M64.6374 5.48675L63.149 15.0548C63.149 15.2674 63.2554 15.3737 63.468 15.3737H64.9563C65.169 15.3737 65.3816 15.1611 65.4879 14.9485L66.9763 5.59306C66.9763 5.38044 66.87 5.27413 66.6573 5.27413H64.9563C64.85 5.16782 64.7437 5.27413 64.6374 5.48675Z" fill="#503223" fill-opacity="0.75"/>
<path d="M12.2258 1.97838C11.4816 1.12788 10.0996 0.702637 8.18599 0.702637H2.87041C2.55148 0.702637 2.23254 1.02157 2.12623 1.34051L0 15.2673C0 15.5863 0.212623 15.7989 0.425246 15.7989H3.7209L4.5714 10.5896V10.8022C4.67771 10.4833 4.99664 10.1644 5.31558 10.1644H6.91025C9.99329 10.1644 12.3321 8.88863 13.0763 5.38035C13.0763 5.27403 13.0763 5.16772 13.0763 5.06141C12.97 5.06141 12.97 5.06141 13.0763 5.06141C13.1826 3.67936 12.97 2.82887 12.2258 1.97838Z" fill="#503223" fill-opacity="0.75"/>
<path d="M12.97 5.06152C12.97 5.16783 12.97 5.27415 12.97 5.38046C12.2258 8.99505 9.88695 10.1645 6.80392 10.1645H5.20924C4.89031 10.1645 4.57137 10.4834 4.46506 10.8023L3.40195 17.2874C3.40195 17.5 3.50826 17.7126 3.82719 17.7126H6.59129C6.91023 17.7126 7.22916 17.5 7.22916 17.181V17.0747L7.76072 13.7791V13.5664C7.76072 13.2475 8.07966 13.0349 8.39859 13.0349H8.82384C11.4816 13.0349 13.6079 11.9718 14.1394 8.78243C14.352 7.50669 14.2457 6.33726 13.6079 5.59308C13.5015 5.38046 13.2889 5.16783 12.97 5.06152Z" fill="#503223" fill-opacity="0.75"/>
<path d="M12.2258 4.74252C12.1195 4.74252 12.0132 4.63621 11.9068 4.63621C11.8005 4.63621 11.6942 4.63621 11.5879 4.5299C11.1627 4.42358 10.7374 4.42358 10.2059 4.42358H6.05971C5.9534 4.42358 5.84709 4.42358 5.74078 4.5299C5.52815 4.63621 5.42184 4.84883 5.42184 5.06145L4.57135 10.5897V10.8023C4.67766 10.4833 4.9966 10.1644 5.31553 10.1644H6.9102C9.99324 10.1644 12.3321 8.88867 13.0763 5.38039C13.0763 5.27408 13.0763 5.16776 13.1826 5.06145C12.97 4.95514 12.8637 4.84883 12.651 4.84883C12.3321 4.74252 12.3321 4.74252 12.2258 4.74252Z" fill="#503223" fill-opacity="0.75"/>
</g>
<defs>
<clipPath id="clip0">
<rect width="66.9763" height="17.1162" fill="white" transform="translate(0 0.702637)"/>
</clipPath>
</defs>
</svg>
