<?xml version="1.0" encoding="iso-8859-1"?>
<!-- Generator: Adobe Illustrator 19.0.0, SVG Export Plug-In . SVG Version: 6.00 Build 0)  -->
<svg version="1.1" id="Capa_1" xmlns="http://www.w3.org/2000/svg" xmlns:xlink="http://www.w3.org/1999/xlink" x="0px" y="0px"
	 viewBox="0 0 464 464" style="enable-background:new 0 0 464 464;" xml:space="preserve">
<g>
	<g>
		<path d="M456,352h-24v-56c0-4.424-3.576-8-8-8h-24v-56c0-4.424-3.576-8-8-8h-24v-56c0-4.424-3.576-8-8-8h-24v-56
			c0-4.424-3.576-8-8-8h-24V48h24c4.424,0,8-3.576,8-8s-3.576-8-8-8h-32H168h-32c-4.424,0-8,3.576-8,8s3.576,8,8,8h24v48h-24
			c-4.424,0-8,3.576-8,8v56h-24c-4.424,0-8,3.576-8,8v56H72c-4.424,0-8,3.576-8,8v56H40c-4.424,0-8,3.576-8,8v56H8
			c-4.424,0-8,3.576-8,8v64c0,4.424,3.576,8,8,8h160h128h160c4.424,0,8-3.576,8-8v-64C464,355.576,460.424,352,456,352z M160,416H16
			v-48h24h120V416z M160,352H48v-48h24h88V352z M160,288H80v-48h24h56V288z M160,224h-48v-48h24h24V224z M160,160h-16v-48h16V160z
			 M288,168v64v64v64v56H176v-56v-64v-64v-64v-56h40h32h40V168z M224,96V80h16v16H224z M288,96h-32V72c0-4.424-3.576-8-8-8h-32
			c-4.424,0-8,3.576-8,8v24h-32V48h112V96z M304,112h16v48h-16V112z M304,176h24h24v48h-48V176z M304,240h56h24v48h-80V240z
			 M304,304h88h24v48H304V304z M448,416H304v-48h120h24V416z"/>
	</g>
</g>
<g>
	<g>
		<path d="M264,384h-64c-4.424,0-8,3.576-8,8s3.576,8,8,8h64c4.424,0,8-3.576,8-8S268.424,384,264,384z"/>
	</g>
</g>
<g>
	<g>
		<path d="M264,320h-64c-4.424,0-8,3.576-8,8s3.576,8,8,8h64c4.424,0,8-3.576,8-8S268.424,320,264,320z"/>
	</g>
</g>
<g>
	<g>
		<path d="M264,256h-64c-4.424,0-8,3.576-8,8s3.576,8,8,8h64c4.424,0,8-3.576,8-8S268.424,256,264,256z"/>
	</g>
</g>
<g>
	<g>
		<path d="M264,192h-64c-4.424,0-8,3.576-8,8s3.576,8,8,8h64c4.424,0,8-3.576,8-8S268.424,192,264,192z"/>
	</g>
</g>
<g>
	<g>
		<path d="M264,128h-64c-4.424,0-8,3.576-8,8s3.576,8,8,8h64c4.424,0,8-3.576,8-8S268.424,128,264,128z"/>
	</g>
</g>
<g>
	<g>
		<path d="M264,160h-64c-4.424,0-8,3.576-8,8s3.576,8,8,8h64c4.424,0,8-3.576,8-8S268.424,160,264,160z"/>
	</g>
</g>
<g>
	<g>
		<path d="M264,224h-64c-4.424,0-8,3.576-8,8s3.576,8,8,8h64c4.424,0,8-3.576,8-8S268.424,224,264,224z"/>
	</g>
</g>
<g>
	<g>
		<path d="M264,288h-64c-4.424,0-8,3.576-8,8s3.576,8,8,8h64c4.424,0,8-3.576,8-8S268.424,288,264,288z"/>
	</g>
</g>
<g>
	<g>
		<path d="M264,352h-64c-4.424,0-8,3.576-8,8s3.576,8,8,8h64c4.424,0,8-3.576,8-8S268.424,352,264,352z"/>
	</g>
</g>
<g>
</g>
<g>
</g>
<g>
</g>
<g>
</g>
<g>
</g>
<g>
</g>
<g>
</g>
<g>
</g>
<g>
</g>
<g>
</g>
<g>
</g>
<g>
</g>
<g>
</g>
<g>
</g>
<g>
</g>
</svg>
