<svg width="39" height="59" viewBox="0 0 39 59" fill="none" xmlns="http://www.w3.org/2000/svg">
<path d="M10.9312 24.6513C10.4721 24.9723 8.05115 25.8185 8.05115 22.959V13.6959H5.1616V22.8352C5.1616 29.5069 12.2469 27.3871 13.8114 26.3091V13.6959H10.9312V24.6513ZM2.1665 4.32478V24.0015C2.1665 33.2386 8.78405 36.0445 18.7503 40.4C28.6813 36.0445 35.3332 33.2568 35.3332 24.0015V4.32478C25.058 -1.16157 10.4361 -0.0930248 2.1665 4.32478ZM33.8047 24.0015C33.8047 31.715 29.1044 34.1203 18.7494 38.725C8.36868 34.1116 3.68637 31.715 3.68637 24.0015V12.7425C12.724 4.38707 24.1483 3.83506 33.8047 4.74354V24.0015ZM15.2866 14.4348V33.39H18.1753V27.2703C20.3311 27.921 24.5096 27.0385 24.5096 20.2777C24.5105 11.6021 17.3806 13.0721 15.2866 14.4348ZM18.1753 24.8832V15.949C18.9176 15.5752 21.5677 14.8181 21.5677 20.3399C21.5686 26.3887 18.3521 24.9542 18.1753 24.8832ZM25.1636 17.1871C25.1721 21.3998 29.7223 20.9724 29.7755 23.4582C29.8287 25.5512 27.0902 25.507 25.2871 23.8943V26.5756C28.4856 28.4903 32.5234 27.2972 32.6376 23.5914C32.7878 19.0041 27.8574 19.4401 27.9192 17.0712C27.9724 15.2629 30.6225 15.2455 32.2042 16.8748V14.3449C29.6871 12.386 25.1464 13.5264 25.1636 17.1871Z" fill="#503223" fill-opacity="0.75"/>
<g clip-path="url(#clip0)">
<path d="M0.166504 45H4.94882V46.4667H1.84678V49.6667H4.30256V51.1333H1.84678V54.7333H4.94882V56.3333H0.166504V45Z" fill="#503223" fill-opacity="0.75"/>
<path d="M7.53364 52.0667L5.85337 47.9333H7.53364L8.56766 50.6L9.47242 47.9333H10.8942L9.21392 52.0667L11.0234 56.4667H9.34317L8.30916 53.5333L7.14589 56.3333H5.72412L7.53364 52.0667Z" fill="#503223" fill-opacity="0.75"/>
<path d="M11.9282 47.9334H13.4792V48.7334C13.867 48.0667 14.5133 47.8 15.0303 47.8C16.1935 47.8 16.7105 48.7334 16.7105 49.8V54.6C16.7105 55.6667 16.0643 56.6 14.7718 56.6C14.2548 56.6 13.7377 56.3334 13.35 55.8V59H11.9282V47.9334ZM15.2888 54.3334V50.0667C15.2888 49.5334 15.0303 49.1334 14.5133 49.1334C13.9963 49.1334 13.6085 49.5334 13.6085 50.3334V54.0667C13.6085 54.7334 13.9963 55.1334 14.5133 55.1334C14.901 55.2667 15.2888 54.8667 15.2888 54.3334Z" fill="#503223" fill-opacity="0.75"/>
<path d="M18.2617 47.9334H19.8127V48.8667C20.0712 48.2 20.5882 47.8 21.2345 47.8C21.3638 47.8 21.6223 47.8 21.7515 47.8V49.4C21.493 49.4 21.2345 49.4 21.1053 49.4C20.459 49.4 19.942 49.8 19.8127 50.6V56.4667H18.2617V47.9334Z" fill="#503223" fill-opacity="0.75"/>
<path d="M22.6562 54.0667V50.3334C22.6562 48.7334 23.6903 47.8 25.112 47.8C26.5338 47.8 27.4386 48.7334 27.4386 50.2V52.7334H24.3365V53.9334C24.3365 54.7334 24.7243 55.2667 25.4998 55.2667C26.0168 55.2667 26.6631 55.1334 27.0508 54.8667L27.3093 56.0667C26.6631 56.3334 26.0168 56.6 25.2413 56.6C23.6903 56.6 22.6562 55.8 22.6562 54.0667ZM25.8875 51.5334V50.0667C25.8875 49.5334 25.629 49.1334 25.112 49.1334C24.4658 49.1334 24.3365 49.6667 24.3365 50.0667V51.5334H25.8875Z" fill="#503223" fill-opacity="0.75"/>
<path d="M28.3433 54.2H29.8943C29.8943 54.8667 30.1528 55.2667 30.6698 55.2667C31.0575 55.2667 31.3161 55 31.3161 54.4667C31.3161 53.9333 30.9283 53.4 30.4113 53L29.765 52.3333C28.9895 51.6667 28.6018 51 28.6018 50.0667C28.6018 49 29.248 47.9333 30.799 47.9333C31.9623 47.9333 32.8671 48.6 32.9963 50.2H31.5746C31.4453 49.4 31.1868 49 30.799 49C30.282 49 30.1528 49.2667 30.1528 49.8C30.1528 50.2 30.4113 50.6 30.9283 51L31.7038 51.8C32.6086 52.6 32.9963 53.4 32.9963 54.3334C32.9963 55.4 32.3501 56.6 30.799 56.6C29.5065 56.6 28.4725 55.8 28.3433 54.2Z" fill="#503223" fill-opacity="0.75"/>
<path d="M33.6426 54.2H35.1936C35.1936 54.8667 35.4521 55.2667 35.9691 55.2667C36.3569 55.2667 36.6154 55 36.6154 54.4667C36.6154 53.9334 36.2276 53.4 35.7106 53L35.0643 52.2C34.2888 51.5334 33.9011 50.8667 33.9011 49.9334C33.9011 48.8667 34.5473 47.8 36.0984 47.8C37.2616 47.8 38.1664 48.4667 38.2956 50.0667H36.8739C36.7446 49.4 36.4861 49 35.9691 49C35.4521 49 35.3229 49.2667 35.3229 49.8C35.3229 50.2 35.5814 50.6 36.0984 51L36.8739 51.8C37.7786 52.6 38.1664 53.4 38.1664 54.3334C38.1664 55.4 37.5201 56.6 35.9691 56.6C34.6766 56.6 33.7718 55.8 33.6426 54.2Z" fill="#503223" fill-opacity="0.75"/>
</g>
<defs>
<clipPath id="clip0">
<rect width="38" height="14" fill="white" transform="translate(0.166504 45)"/>
</clipPath>
</defs>
</svg>
