<svg width="45" height="16" viewBox="0 0 45 16" fill="none" xmlns="http://www.w3.org/2000/svg">
<path fill-rule="evenodd" clip-rule="evenodd" d="M18.3888 1.2351L16.1356 15.0858H19.7411L21.9943 1.2351H18.3888ZM13.1015 1.2351L9.66405 10.7608L9.25777 8.70933V8.71029L9.16845 8.25023C8.75162 7.35413 7.78733 5.65029 5.96823 4.19617C5.43038 3.76589 4.88773 3.399 4.36332 3.08589L7.48766 15.0858H11.2449L16.9817 1.2351H13.1015ZM27.174 5.08075C27.174 3.51521 30.6854 3.71594 32.2289 4.56594L32.7437 1.59143C32.7437 1.59143 31.156 0.987305 29.5002 0.987305C27.7109 0.987305 23.4609 1.77007 23.4609 5.5725C23.4609 9.15113 28.4485 9.19532 28.4485 11.0749C28.4485 12.9545 23.9757 12.6184 22.4995 11.4332L21.9626 14.5421C21.9626 14.5421 23.5723 15.3249 26.033 15.3249C28.4937 15.3249 32.2058 14.0504 32.2058 10.5832C32.2058 6.98148 27.174 6.64628 27.174 5.08075ZM41.8881 1.2351H38.9885C37.6497 1.2351 37.3241 2.26759 37.3241 2.26759L31.9465 15.0858H35.7047L36.4568 13.0285H41.041L41.4636 15.0858H44.7743L41.8881 1.2351ZM37.496 10.1865L39.3909 5.00295L40.457 10.1865H37.496Z" fill="#503223" fill-opacity="0.75"/>
<path fill-rule="evenodd" clip-rule="evenodd" d="M8.09298 2.54007C8.09298 2.54007 7.94411 1.29053 6.35072 1.29053H0.562088L0.493896 1.52488C0.493896 1.52488 3.27632 2.0925 5.94637 4.21702C8.49733 6.24837 9.33004 8.78012 9.33004 8.78012L8.09298 2.54007Z" fill="#503223" fill-opacity="0.75"/>
</svg>
