<svg width="30" height="22" viewBox="0 0 30 22" fill="none" xmlns="http://www.w3.org/2000/svg">
<path fill-rule="evenodd" clip-rule="evenodd" d="M29.7027 4.5317C29.7027 4.5317 29.4133 2.47608 28.5137 1.56507C27.3716 0.373749 26.0965 0.373749 25.5098 0.303671C21.3012 2.78464e-07 15.0039 0 15.0039 0H14.9961C14.9961 0 8.69883 2.78464e-07 4.49804 0.303671C3.91134 0.373749 2.63625 0.381535 1.49413 1.56507C0.594524 2.4683 0.305085 4.5317 0.305085 4.5317C0.305085 4.5317 0 6.94549 0 9.36707V11.6329C0 14.0467 0.297262 16.4683 0.297262 16.4683C0.297262 16.4683 0.586701 18.5239 1.48631 19.4349C2.62842 20.6262 4.12256 20.5873 4.79531 20.7119C7.19687 20.9377 14.9961 21.0156 14.9961 21.0156C14.9961 21.0156 21.3012 21.0078 25.4941 20.7041C26.0808 20.634 27.3559 20.6263 28.498 19.4427C29.3977 18.5395 29.6871 16.4761 29.6871 16.4761C29.6871 16.4761 29.9844 14.0623 29.9844 11.6407V9.37486C30 6.94549 29.7027 4.5317 29.7027 4.5317ZM11.9061 14.3737V5.98776L20.0104 10.2002L11.9061 14.3737Z" fill="#503223"/>
</svg>
