<svg width="115" height="35" viewBox="0 0 115 35" fill="none" xmlns="http://www.w3.org/2000/svg">
<path d="M42.6875 16.0938H53.2159L57.2162 10.7226H46.6878L42.6875 16.0938ZM0 12.8379V13.976H14.6709L15.5143 12.8379H0ZM31.0112 10.7226C29.4515 10.7226 29.9357 10.0818 30.1852 9.74534C30.6868 9.06992 31.5477 7.89474 32.0493 7.23911C32.5509 6.58101 32.5509 6.19011 31.5477 6.19011H22.4018L15.0302 16.1111H32.9851C38.9219 16.1111 42.2234 12.1105 43.244 10.7226H31.0112ZM87.9579 9.49546L95.0076 0H83.8503L76.8031 9.49546H87.9579ZM17.094 10.7226H0V11.8607H16.2505L17.094 10.7226ZM37.0028 5.99218C36.5013 6.6676 35.6578 7.84279 35.1562 8.51821C34.9042 8.87447 34.42 9.49546 35.9822 9.49546H44.1599C44.1599 9.49546 45.47 7.71661 46.5805 6.22227C48.0877 4.19601 46.7052 0 41.3425 0H20.1958L16.5375 4.94318H36.5187C37.5219 4.94318 37.5044 5.33408 37.0028 5.99218ZM0 16.0938H13.1112L13.9547 14.9557H0V16.0938ZM57.9324 16.0938H68.4607L72.461 10.7226H61.9326C61.9151 10.7226 57.9324 16.0938 57.9324 16.0938ZM97.7526 16.1111H114.792V14.973H98.5961L97.7526 16.1111ZM101.75 10.7226L100.907 11.8607H114.792V10.7226H101.75ZM99.3297 13.976H114.792V12.8379H100.173L99.3297 13.976ZM69.8782 0L65.843 5.44047H61.144L65.1792 0H54.6508L47.6011 9.49546H73.3569L80.4066 0H69.8782ZM75.8873 10.7226C75.8873 10.7226 75.1162 11.7716 74.7394 12.2689C73.4118 14.0477 74.5772 16.1086 78.8993 16.1086H95.8136L99.8139 10.7201H75.8873V10.7226Z" fill="#503223" fill-opacity="0.75"/>
<g clip-path="url(#clip0)">
<path d="M39.8005 24.1714H43.7075L43.4034 25.0283H40.4846L39.1468 28.8144H41.5032L41.1839 29.7025H38.8276L37.3074 34.0028H40.2566L39.9373 34.8909H36L39.8005 24.1714Z" fill="#503223" fill-opacity="0.75"/>
<path d="M44.665 29.4533L44.7258 24.1714H45.7595L45.6835 28.2691L48.4959 24.1714H49.4232L45.7595 29.3598L45.7443 34.8754H44.7258L44.7562 30.5751L41.7766 34.8754H40.8188L44.665 29.4533Z" fill="#503223" fill-opacity="0.75"/>
<path d="M50.7913 24.1714H52.9196C54.6222 24.1714 54.7743 25.4646 54.151 27.2408C53.4669 29.1728 52.2355 30.4504 50.5937 30.4504H49.5751L47.9789 34.8754H46.9756L50.7913 24.1714ZM50.7913 29.5623C51.8403 29.5623 52.6156 28.7365 53.1628 27.2252C53.5885 26.0099 53.5885 25.0439 52.4787 25.0439H51.4602L49.8488 29.5623H50.7913Z" fill="#503223" fill-opacity="0.75"/>
<path d="M56.7966 24.1714H58.9097C60.5515 24.1714 60.9012 25.262 60.2627 27.085C59.7306 28.5963 58.8033 29.6091 57.8456 29.8584L57.6175 34.8754H56.599L56.8422 30.1076H55.7021L53.9994 34.8754H52.9961L56.7966 24.1714ZM57.0854 29.2974C58.028 29.2974 58.7425 28.5028 59.2137 27.194C59.5938 26.119 59.6698 25.0439 58.5448 25.0439H57.4807L55.9605 29.2974H57.0854Z" fill="#503223" fill-opacity="0.75"/>
<path d="M62.9231 24.1714H66.83L66.526 25.0283H63.592L62.2542 28.8144H64.6105L64.2913 29.7025H61.9349L60.4147 34.0028H63.3639L63.0447 34.8909H59.1226L62.9231 24.1714Z" fill="#503223" fill-opacity="0.75"/>
<path d="M65.0208 32.4292L65.9633 32.398C65.6896 33.4575 65.8265 34.1742 66.6778 34.1742C67.6203 34.1742 68.2132 33.3329 68.4716 32.5694C68.7301 31.8527 68.6845 31.1048 68.3348 30.4348L67.5899 28.8924C67.1794 28.0822 67.0122 27.2408 67.3467 26.3059C67.8179 24.9972 68.8669 24 70.2959 24C71.4208 24 72.0289 24.6232 71.512 26.3683L70.5999 26.3994C70.8735 25.3088 70.6607 24.8258 69.9614 24.8258C69.2469 24.8258 68.6236 25.2932 68.2892 26.2436C68.046 26.9292 68.2892 27.5836 68.6084 28.238L69.2469 29.5779C69.703 30.5127 69.8398 31.4009 69.4446 32.4915C68.9125 33.9717 67.7723 35.0156 66.3737 35.0156C65.036 35 64.5495 34.0963 65.0208 32.4292Z" fill="#503223" fill-opacity="0.75"/>
<path d="M70.2957 32.4292L71.2382 32.398C70.9645 33.4575 71.1014 34.1742 71.9527 34.1742C72.8952 34.1742 73.4881 33.3329 73.7465 32.5694C74.005 31.8527 73.9594 31.1048 73.6097 30.4348L72.8648 28.8924C72.4544 28.0822 72.2871 27.2408 72.6216 26.3059C73.0928 24.9972 74.1418 24 75.5708 24C76.6957 24 77.3038 24.6232 76.787 26.3683L75.8748 26.3994C76.1485 25.3088 75.9356 24.8258 75.2363 24.8258C74.5218 24.8258 73.8986 25.2932 73.5641 26.2436C73.3209 26.9292 73.5641 27.5836 73.8833 28.238L74.5218 29.5779C74.9779 30.5127 75.1147 31.4009 74.7195 32.4915C74.1874 33.9717 73.0472 35.0156 71.6486 35.0156C70.3109 35 69.8244 34.0963 70.2957 32.4292Z" fill="#503223" fill-opacity="0.75"/>
</g>
<defs>
<clipPath id="clip0">
<rect width="41" height="11" fill="white" transform="translate(36 24)"/>
</clipPath>
</defs>
</svg>
