<svg width="19" height="19" viewBox="0 0 19 19" fill="none" xmlns="http://www.w3.org/2000/svg">
<path d="M18.5008 15.7257C18.2585 16.3497 17.9355 16.8783 17.4069 17.4069C16.8783 17.9355 16.3497 18.2585 15.7257 18.5008C15.1236 18.7357 14.4262 18.8972 13.4204 18.9413C12.4073 18.9853 12.0842 19 9.5 19C6.91577 19 6.59274 18.9927 5.5796 18.9413C4.56646 18.8972 3.87635 18.7357 3.27434 18.5008C2.65031 18.2585 2.12172 17.9355 1.59312 17.4069C1.06453 16.8783 0.741499 16.3497 0.499227 15.7257C0.264297 15.1236 0.102782 14.4262 0.0587326 13.4204C0.0146832 12.4073 0 12.0842 0 9.5C0 6.91576 0.00734158 6.59273 0.0587326 5.5796C0.102782 4.56646 0.264297 3.87635 0.499227 3.27434C0.741499 2.65031 1.06453 2.12171 1.59312 1.59312C2.12172 1.06453 2.65031 0.741497 3.27434 0.499226C3.87635 0.264296 4.5738 0.102781 5.5796 0.0587311C6.59274 0.0146809 6.91577 0 9.5 0C12.0842 0 12.4073 0.00733948 13.4204 0.0587311C14.4335 0.102781 15.1236 0.264296 15.7257 0.499226C16.3497 0.741497 16.8783 1.06453 17.4069 1.59312C17.9355 2.12171 18.2585 2.65031 18.5008 3.27434C18.7357 3.87635 18.8972 4.5738 18.9413 5.5796C18.9853 6.59273 19 6.91576 19 9.5C19 12.0842 18.9927 12.4073 18.9413 13.4204C18.8972 14.4335 18.7357 15.1236 18.5008 15.7257ZM17.2307 5.66035C17.1866 4.73532 17.0325 4.22875 16.9003 3.89838C16.7315 3.45788 16.5185 3.13485 16.1882 2.80448C15.8578 2.47411 15.5421 2.26855 15.0943 2.09235C14.7566 1.9602 14.2573 1.80603 13.3323 1.76198C12.3265 1.71793 12.0328 1.70324 9.49266 1.70324C6.95247 1.70324 6.65147 1.71059 5.65301 1.76198C4.72798 1.80603 4.22141 1.9602 3.89104 2.09235C3.45054 2.2612 3.12751 2.47411 2.79714 2.80448C2.46677 3.13485 2.26121 3.45054 2.08501 3.89838C1.95286 4.23609 1.79869 4.73532 1.75464 5.66035C1.71059 6.66615 1.6959 6.96716 1.6959 9.5C1.6959 12.0328 1.70325 12.3412 1.75464 13.3396C1.79869 14.2647 1.95286 14.7713 2.08501 15.1016C2.25386 15.5421 2.46677 15.8651 2.79714 16.1955C3.12751 16.5259 3.4432 16.7315 3.89104 16.9077C4.22875 17.0398 4.72798 17.194 5.65301 17.238C6.65881 17.2821 6.95982 17.2968 9.49266 17.2968C12.0255 17.2968 12.3338 17.2894 13.3323 17.238C14.2573 17.194 14.7639 17.0398 15.0943 16.9077C15.5348 16.7388 15.8578 16.5259 16.1882 16.1955C16.5185 15.8651 16.7241 15.5495 16.9003 15.1016C17.0325 14.7639 17.1866 14.2647 17.2307 13.3396C17.2747 12.3338 17.2894 12.0328 17.2894 9.5C17.2894 6.96716 17.2747 6.65881 17.2307 5.66035Z" fill="#503223"/>
<path d="M9.4925 14.3818C6.79814 14.3818 4.61035 12.194 4.61035 9.49969C4.61035 6.80533 6.79814 4.61754 9.4925 4.61754C12.1869 4.61754 14.3746 6.80533 14.3746 9.49969C14.3746 12.194 12.1869 14.3818 9.4925 14.3818ZM9.4925 6.32813C7.74521 6.32813 6.32094 7.74505 6.32094 9.49969C6.32094 11.247 7.73786 12.6712 9.4925 12.6712C11.2471 12.6712 12.6641 11.2543 12.6641 9.49969C12.6641 7.75239 11.2398 6.32813 9.4925 6.32813Z" fill="#503223"/>
<path d="M14.5657 13.4351C15.1941 13.4351 15.7036 13.9445 15.7036 14.573C15.7036 15.2015 15.1941 15.7109 14.5657 15.7109C13.9372 15.7109 13.4277 15.2015 13.4277 14.573C13.4277 13.9445 13.9372 13.4351 14.5657 13.4351Z" fill="#503223"/>
</svg>
